# xmcd
#
# Track frame offsets:
#	150
#	15629
#	33429
#	51912
#	68940
#	84371
#	99842
#	114284
#	129298
#	145799
#	165113
#	181882
#	211435
#
# Disc length: 3553 seconds
# Revision: 3
# Processed by: cddbd v1.5.2PL0 Copyright (c) Steve Scherf et al.
# Submitted via: dBpowerAMP V12.0
#
DISCID=9c0ddf0d
DTITLE=Jimmy Wayne - Do You Believe Me Now
DYEAR=2008
DGENRE=Country
TTITLE0=Do You Believe Me Now
TTITLE1=I Will
TTITLE2=I’ll Be That
TTITLE3=Brighter Days
TTITLE4=One On One
TTITLE5=Kerosene Kid
TTITLE6=No Good For Me
TTITLE7=True Believer
TTITLE8=I Didn’t Come Here To Lose
TTITLE9=Where You’re Going
TTITLE10=Stay Gone
TTITLE11=I Love You This Much
TTITLE12=DATA
EXTD=
EXTT0=
EXTT1=
EXTT2=
EXTT3=
EXTT4=
EXTT5=
EXTT6=
EXTT7=
EXTT8=
EXTT9=
EXTT10=
EXTT11=
EXTT12=
PLAYORDER=
